<svg xmlns="http://www.w3.org/2000/svg" xmlns:xlink="http://www.w3.org/1999/xlink" viewBox="0 0 2906.19 2887.63"><defs><style>.cls-1{isolation:isolate;}.cls-2{fill:#f4f7fa;}.cls-3{fill:url(#linear-gradient);}.cls-4,.cls-8{fill:#fff;mix-blend-mode:soft-light;}.cls-11,.cls-34,.cls-4,.cls-40,.cls-43{opacity:0.3;}.cls-5{fill:#d8dee8;}.cls-6{fill:url(#linear-gradient-3);}.cls-7{fill:url(#linear-gradient-4);}.cls-8{opacity:0.5;}.cls-9{fill:url(#linear-gradient-5);}.cls-10{fill:url(#linear-gradient-6);}.cls-11,.cls-34,.cls-40,.cls-43{mix-blend-mode:multiply;}.cls-12{fill:url(#linear-gradient-7);}.cls-13{fill:url(#linear-gradient-8);}.cls-14{fill:url(#linear-gradient-9);}.cls-15{fill:url(#linear-gradient-10);}.cls-16{fill:url(#linear-gradient-11);}.cls-17{fill:url(#linear-gradient-12);}.cls-18{fill:url(#linear-gradient-13);}.cls-19{fill:url(#linear-gradient-14);}.cls-20{fill:url(#linear-gradient-15);}.cls-21{fill:url(#linear-gradient-16);}.cls-22{fill:url(#linear-gradient-17);}.cls-23{fill:url(#linear-gradient-18);}.cls-24{fill:url(#linear-gradient-19);}.cls-25{fill:url(#linear-gradient-20);}.cls-26{fill:url(#linear-gradient-21);}.cls-27{fill:url(#linear-gradient-22);}.cls-28{fill:url(#linear-gradient-23);}.cls-29{fill:url(#linear-gradient-24);}.cls-30{fill:#26264f;}.cls-31{fill:url(#linear-gradient-25);}.cls-32{fill:url(#linear-gradient-26);}.cls-33{fill:url(#linear-gradient-27);}.cls-34{fill:url(#linear-gradient-28);}.cls-35{fill:url(#linear-gradient-29);}.cls-36{fill:url(#linear-gradient-30);}.cls-37{fill:url(#linear-gradient-31);}.cls-38{fill:url(#linear-gradient-32);}.cls-39{fill:url(#linear-gradient-33);}.cls-40{fill:url(#linear-gradient-34);}.cls-41{fill:url(#linear-gradient-35);}.cls-42{fill:url(#linear-gradient-36);}.cls-43{fill:url(#linear-gradient-37);}.cls-44{fill:url(#linear-gradient-38);}.cls-45{fill:url(#linear-gradient-39);}.cls-46{fill:url(#linear-gradient-40);}.cls-47{fill:url(#linear-gradient-41);}.cls-48{fill:url(#linear-gradient-42);}.cls-49{fill:url(#linear-gradient-43);}.cls-50{fill:url(#linear-gradient-44);}.cls-51{fill:url(#linear-gradient-45);}.cls-52{fill:url(#linear-gradient-46);}.cls-53{fill:url(#linear-gradient-47);}.cls-54{fill:url(#linear-gradient-48);}.cls-55{fill:url(#linear-gradient-49);}.cls-56{fill:url(#linear-gradient-50);}.cls-57{fill:url(#linear-gradient-51);}.cls-58{fill:url(#linear-gradient-52);}.cls-59{fill:url(#linear-gradient-53);}.cls-60{fill:url(#linear-gradient-54);}.cls-61{fill:url(#linear-gradient-55);}.cls-62{fill:url(#linear-gradient-56);}.cls-63{fill:url(#linear-gradient-57);}</style><linearGradient id="linear-gradient" x1="317.97" y1="-8.5" x2="265.27" y2="2349.64" gradientTransform="translate(483.06 249.3) rotate(7.58)" gradientUnits="userSpaceOnUse"><stop offset="0" stop-color="#aa80f9"/><stop offset="1" stop-color="#6165d7"/></linearGradient><linearGradient id="linear-gradient-3" x1="124.47" y1="1993.09" x2="514.52" y2="1793.53" gradientUnits="userSpaceOnUse"><stop offset="0" stop-color="#ff9085"/><stop offset="1" stop-color="#fb6fbb"/></linearGradient><linearGradient id="linear-gradient-4" x1="1031.08" y1="2384.65" x2="368.44" y2="1215.83" gradientTransform="translate(-985.48 -151.31) rotate(-12.65)" gradientUnits="userSpaceOnUse"><stop offset="0" stop-color="#e38ddd"/><stop offset="1" stop-color="#9571f6"/></linearGradient><linearGradient id="linear-gradient-5" x1="655.72" y1="1605.51" x2="2895.88" y2="1605.51" gradientUnits="userSpaceOnUse"><stop offset="0" stop-color="#ebeff2"/><stop offset="1" stop-color="#fff"/></linearGradient><linearGradient id="linear-gradient-6" x1="2123.74" y1="1010.56" x2="3416.59" y2="3392.6" gradientTransform="matrix(1, 0, 0.22, 1, -1019.67, 0)" xlink:href="#linear-gradient-3"/><linearGradient id="linear-gradient-7" x1="1730.14" y1="1232.34" x2="3042.65" y2="3650.6" gradientTransform="matrix(1, 0, 0.22, 1, -1019.67, 0)" xlink:href="#linear-gradient-3"/><linearGradient id="linear-gradient-8" x1="2339.73" y1="2496.9" x2="2601.59" y2="611.48" gradientTransform="matrix(1, 0, 0.22, 1, -1019.67, 0)" xlink:href="#linear-gradient-5"/><linearGradient id="linear-gradient-9" x1="1757.3" y1="980.59" x2="1828.78" y2="1973.34" gradientTransform="matrix(1, 0, 0.22, 1, -1019.67, 0)" xlink:href="#linear-gradient-4"/><linearGradient id="linear-gradient-10" x1="2020.45" y1="967.61" x2="2090.39" y2="1939.07" gradientTransform="matrix(1, 0, 0.22, 1, -1019.67, 0)" xlink:href="#linear-gradient-4"/><linearGradient id="linear-gradient-11" x1="2274.87" y1="955.2" x2="2343.34" y2="1906.24" gradientTransform="matrix(1, 0, 0.22, 1, -1019.67, 0)" xlink:href="#linear-gradient-4"/><linearGradient id="linear-gradient-12" x1="2520.99" y1="943.33" x2="2588.05" y2="1874.74" gradientTransform="matrix(1, 0, 0.22, 1, -1019.67, 0)" xlink:href="#linear-gradient-4"/><linearGradient id="linear-gradient-13" x1="2759.21" y1="931.97" x2="2824.92" y2="1844.51" gradientTransform="matrix(1, 0, 0.22, 1, -1019.67, 0)" xlink:href="#linear-gradient-4"/><linearGradient id="linear-gradient-14" x1="2989.91" y1="921.08" x2="3054.31" y2="1815.48" gradientTransform="matrix(1, 0, 0.22, 1, -1019.67, 0)" xlink:href="#linear-gradient-4"/><linearGradient id="linear-gradient-15" x1="3213.44" y1="910.64" x2="3276.58" y2="1787.58" gradientTransform="matrix(1, 0, 0.22, 1, -1019.67, 0)" xlink:href="#linear-gradient-4"/><linearGradient id="linear-gradient-16" x1="2551.53" y1="1099.84" x2="2743.91" y2="1099.84" gradientTransform="matrix(0.99, 0.14, -0.14, 0.99, -654.58, -264.32)" xlink:href="#linear-gradient-3"/><linearGradient id="linear-gradient-17" x1="1539.9" y1="1082.9" x2="2480.3" y2="2266.04" gradientUnits="userSpaceOnUse"><stop offset="0" stop-color="#893976"/><stop offset="1" stop-color="#311944"/></linearGradient><linearGradient id="linear-gradient-18" x1="1414.33" y1="1426.28" x2="2020.62" y2="2189.07" xlink:href="#linear-gradient-17"/><linearGradient id="linear-gradient-19" x1="1645.12" y1="2717.61" x2="1678.1" y2="2746.94" gradientTransform="translate(64.28)" gradientUnits="userSpaceOnUse"><stop offset="0" stop-color="#444b8c"/><stop offset="1" stop-color="#26264f"/></linearGradient><linearGradient id="linear-gradient-20" x1="751.58" y1="2747" x2="751.58" y2="2689.55" gradientTransform="translate(989.59)" gradientUnits="userSpaceOnUse"><stop offset="0" stop-color="#ffc444"/><stop offset="1" stop-color="#f36f56"/></linearGradient><linearGradient id="linear-gradient-21" x1="-236.49" y1="2777.31" x2="-451.53" y2="1909.09" gradientTransform="matrix(-1, 0, 0, 1, 1517.97, 0)" xlink:href="#linear-gradient-19"/><linearGradient id="linear-gradient-22" x1="1648.44" y1="2713.88" x2="1681.41" y2="2743.21" xlink:href="#linear-gradient-19"/><linearGradient id="linear-gradient-23" x1="1520.2" y1="2234.04" x2="2334.92" y2="910.56" gradientTransform="matrix(1, 0, 0, 1, 0, 0)" xlink:href="#linear-gradient-20"/><linearGradient id="linear-gradient-24" x1="1764.87" y1="1740.62" x2="1776.48" y2="1880.94" xlink:href="#linear-gradient-17"/><linearGradient id="linear-gradient-25" x1="4488.09" y1="449.57" x2="4499.71" y2="589.89" gradientTransform="translate(-2010.01 -724.53) rotate(27.57)" xlink:href="#linear-gradient-17"/><linearGradient id="linear-gradient-26" x1="-615.85" y1="3716.14" x2="-615.85" y2="3515.91" gradientTransform="matrix(-0.78, 0.63, 0.63, 0.78, -747.57, 67.65)" xlink:href="#linear-gradient-20"/><linearGradient id="linear-gradient-27" x1="-599.93" y1="3723.72" x2="-637.73" y2="3599.08" gradientTransform="matrix(-0.78, 0.63, 0.63, 0.78, -747.57, 67.65)" xlink:href="#linear-gradient-19"/><linearGradient id="linear-gradient-28" x1="1520.26" y1="2234.07" x2="2334.98" y2="910.6" gradientTransform="matrix(1, 0, 0, 1, 0, 0)" xlink:href="#linear-gradient-20"/><linearGradient id="linear-gradient-29" x1="-1441.22" y1="2883.96" x2="-1488.24" y2="2728.91" gradientTransform="matrix(-0.99, 0.12, 0.12, 0.99, 732.84, -44.58)" xlink:href="#linear-gradient-19"/><linearGradient id="linear-gradient-30" x1="-1481.76" y1="2853.77" x2="-1481.76" y2="2604.66" gradientTransform="matrix(-0.99, 0.12, 0.12, 0.99, 732.84, -44.58)" xlink:href="#linear-gradient-20"/><linearGradient id="linear-gradient-31" x1="-1390.04" y1="2853.77" x2="-1390.04" y2="2604.66" gradientTransform="matrix(-0.99, 0.12, 0.12, 0.99, 732.84, -44.58)" xlink:href="#linear-gradient-20"/><linearGradient id="linear-gradient-32" x1="-1372.72" y1="2863.18" x2="-1419.74" y2="2708.13" gradientTransform="matrix(-0.99, 0.12, 0.12, 0.99, 732.84, -44.58)" xlink:href="#linear-gradient-19"/><linearGradient id="linear-gradient-33" x1="-1503.3" y1="2316.24" x2="-1526.17" y2="2830.98" gradientTransform="matrix(-0.99, 0.12, 0.12, 0.99, 732.84, -44.58)" gradientUnits="userSpaceOnUse"><stop offset="0" stop-color="#311944"/><stop offset="1" stop-color="#893976"/></linearGradient><linearGradient id="linear-gradient-34" x1="-1503.3" y1="2316.24" x2="-1526.17" y2="2830.98" xlink:href="#linear-gradient-33"/><linearGradient id="linear-gradient-35" x1="-1154.55" y1="2535.22" x2="-1573.97" y2="2516.15" xlink:href="#linear-gradient-33"/><linearGradient id="linear-gradient-36" x1="-1775.3" y1="2645.11" x2="-1477.9" y2="2009.63" gradientTransform="matrix(-0.99, 0.12, 0.12, 0.99, 732.84, -44.58)" xlink:href="#linear-gradient-3"/><linearGradient id="linear-gradient-37" x1="3128.22" y1="2322.36" x2="3360.52" y2="2800.04" gradientTransform="translate(-1385.94 397.91) rotate(-16.77)" xlink:href="#linear-gradient-3"/><linearGradient id="linear-gradient-38" x1="-1447.58" y1="1820.7" x2="-1501.23" y2="1907.49" gradientTransform="matrix(-0.99, 0.12, 0.12, 0.99, 732.84, -44.58)" xlink:href="#linear-gradient-20"/><linearGradient id="linear-gradient-39" x1="-1247.76" y1="1955.07" x2="-1355.9" y2="2130" gradientTransform="matrix(-0.99, 0.12, 0.12, 0.99, 732.84, -44.58)" xlink:href="#linear-gradient-19"/><linearGradient id="linear-gradient-40" x1="-1228.68" y1="1932.23" x2="-1322.09" y2="2107.61" gradientTransform="matrix(-0.99, 0.1, 0.1, 0.99, 790.05, -40.77)" xlink:href="#linear-gradient-20"/><linearGradient id="linear-gradient-41" x1="-1258.81" y1="1943.85" x2="-1233.07" y2="1890.47" gradientTransform="matrix(-0.99, 0.12, 0.12, 0.99, 732.84, -44.58)" xlink:href="#linear-gradient"/><linearGradient id="linear-gradient-42" x1="-1273.36" y1="1930.78" x2="-1185.17" y2="1930.78" gradientTransform="matrix(-0.99, 0.1, 0.1, 0.99, 790.05, -40.77)" xlink:href="#linear-gradient-19"/><linearGradient id="linear-gradient-43" x1="-1277.26" y1="1938.88" x2="-1189.5" y2="1938.88" gradientTransform="matrix(-0.99, 0.1, 0.1, 0.99, 790.05, -40.77)" xlink:href="#linear-gradient-19"/><linearGradient id="linear-gradient-44" x1="-1281.33" y1="1954.29" x2="-1231.74" y2="1954.29" gradientTransform="matrix(-0.99, 0.1, 0.1, 0.99, 790.05, -40.77)" xlink:href="#linear-gradient-19"/><linearGradient id="linear-gradient-45" x1="-1224.88" y1="2024.2" x2="-1250.83" y2="2066.18" gradientTransform="matrix(-0.99, 0.12, 0.12, 0.99, 732.84, -44.58)" xlink:href="#linear-gradient-20"/><linearGradient id="linear-gradient-46" x1="-1641.83" y1="2707.57" x2="-1344.43" y2="2072.1" gradientTransform="matrix(-0.99, 0.12, 0.12, 0.99, 732.84, -44.58)" xlink:href="#linear-gradient-3"/><linearGradient id="linear-gradient-47" x1="-1745.53" y1="2184.23" x2="-1528.63" y2="1720.77" gradientTransform="matrix(-0.99, 0.12, 0.12, 0.99, 732.84, -44.58)" xlink:href="#linear-gradient-19"/><linearGradient id="linear-gradient-48" x1="-105.65" y1="277.94" x2="293.14" y2="277.94" gradientTransform="translate(1485.15 267.46) rotate(-17.21)" xlink:href="#linear-gradient-3"/><linearGradient id="linear-gradient-49" x1="333.02" y1="334.29" x2="-13.3" y2="1194.84" gradientTransform="translate(1485.15 267.46) rotate(-17.21)" xlink:href="#linear-gradient"/><linearGradient id="linear-gradient-50" x1="4150.83" y1="132.22" x2="4392.41" y2="132.22" gradientTransform="matrix(0.93, 0.38, -0.38, 0.93, -1691.05, -978.26)" xlink:href="#linear-gradient-3"/><linearGradient id="linear-gradient-51" x1="-1231.37" y1="-601.96" x2="-1441.17" y2="-80.64" gradientTransform="matrix(0.78, -0.62, 0.62, 0.78, 3345.76, -35.77)" xlink:href="#linear-gradient-4"/><linearGradient id="linear-gradient-52" x1="952.96" y1="179.14" x2="370.85" y2="1625.58" gradientTransform="translate(1485.15 267.46) rotate(-17.21)" xlink:href="#linear-gradient-20"/><linearGradient id="linear-gradient-53" x1="-139.59" y1="-54.17" x2="-242.91" y2="202.54" gradientTransform="matrix(0.92, -0.4, 0.4, 0.92, 2060.07, 225.97)" xlink:href="#linear-gradient-20"/><linearGradient id="linear-gradient-54" x1="5454.51" y1="-862.9" x2="5351.21" y2="-606.21" gradientTransform="translate(-2440.3 -1995.28) rotate(37)" xlink:href="#linear-gradient-20"/><linearGradient id="linear-gradient-55" x1="-647.46" y1="257.18" x2="-731.12" y2="465.04" gradientTransform="matrix(0.92, -0.4, 0.4, 0.92, 2060.07, 225.97)" xlink:href="#linear-gradient-20"/><linearGradient id="linear-gradient-56" x1="-3887.72" y1="-3832.1" x2="-4011.77" y2="-3523.85" gradientTransform="matrix(0.19, -0.98, 0.94, 0.18, 5688.37, -2506.34)" xlink:href="#linear-gradient-20"/><linearGradient id="linear-gradient-57" x1="-514.68" y1="-91.98" x2="-617.99" y2="164.73" gradientTransform="matrix(0.92, -0.4, 0.4, 0.92, 2060.07, 225.97)" xlink:href="#linear-gradient-20"/></defs><g class="cls-1"><g id="Layer_2" data-name="Layer 2"><g id="Illustration"><path class="cls-2" d="M2556.53,2483.44c-75.64,78-143.33,123.81-195.15,158.41-505.41,337.47-1083.15,240.2-1261.77,207-288.19-53.64-531.46-91.48-740.47-280.31C-115.79,2139.41-92.69,1244.31,270.21,689.83,313.24,624.08,675.6,87,1254.59,11.26c14.17-1.85,24.73-2.9,34-3.88C1378.14-2.1,1933.18-52.15,2385.76,327c64.78,54.27,169,152.17,265.72,301.49C3005,1174.47,3006.1,2020,2556.53,2483.44Z"/><path class="cls-3" d="M943.12,2143.18c118.9-19,120.47-618.4,67-1036.6-43.88-343.45-136.53-656.12-205.64-652-52.9,3.14-72.56,190.73-118,188.07-61-3.56-41.08-341.24-153.91-374.89-69.52-20.73-181.21,76.4-233,186.08-93.39,197.88,25,401.23,256,902.69C851.6,1999.12,881.92,2153,943.12,2143.18Z"/><path class="cls-3" d="M943.12,2143.18c118.9-19,120.47-618.4,67-1036.6-43.88-343.45-136.53-656.12-205.64-652-52.9,3.14-72.56,190.73-118,188.07-61-3.56-41.08-341.24-153.91-374.89-69.52-20.73-181.21,76.4-233,186.08-93.39,197.88,25,401.23,256,902.69C851.6,1999.12,881.92,2153,943.12,2143.18Z"/><path class="cls-4" d="M931.12,1750.62c12.27-164.34,57.83-254,4.68-384.8-46.42-114.21-107.92-111.57-163.52-244.37-63-150.41.61-190.41-55.14-309.7-77.41-165.63-229.55-151.84-292.6-298.1-19.93-46.22-32.41-111.86-11.1-205-44.55,35.44-87.16,88.6-113.85,145.14-93.39,197.88,25,401.23,256,902.69,296,642.6,326.34,796.46,387.54,786.66,9.3-1.49,17.88-6.53,25.77-14.75C927.67,1973.49,924,1846.29,931.12,1750.62Z"/><polygon class="cls-5" points="978.2 2402.44 438.52 2221.03 1214.79 2169.23 978.2 2402.44"/><path class="cls-6" d="M656.41,822.53l-210.12,1348c-4,26,14.55,49.47,38.2,48.35l1051.67-49.63Z"/><path class="cls-7" d="M1097.61,2310.33C968.89,1992.69,814,1763.79,696.19,1614.2c-265-336.59-404.28-350.94-466-348.32-82.26,3.49-190.37,44.09-211.57,116.77-39.67,136,242.43,324.14,206.71,374.9-18.48,26.27-96.81-20.16-132.06,13.91-48.22,46.6,28.44,200.91,49.35,238.18C304.24,2297.73,903.92,2311.26,1097.61,2310.33Z"/><path class="cls-8" d="M824.28,2062.54C695,1978.05,654.15,1985,586.9,1908.3c-124-141.4-67-258.29-184.62-350-83.88-65.38-138-25.57-257.23-95.56-48.52-28.49-87.51-63.25-118.77-98.7a96.86,96.86,0,0,0-7.66,18.6c-39.67,136,242.43,324.14,206.71,374.9-18.48,26.27-96.81-20.16-132.06,13.91-48.22,46.6,28.44,200.91,49.35,238.18,161.62,288.09,761.3,301.62,955,300.69-2.35-5.79-4.72-11.49-7.09-17.23C990.27,2181.28,895.57,2109.13,824.28,2062.54Z"/><path class="cls-9" d="M2580,850.62,696.8,792.37c-27.47-.85-45.48,20.18-40.14,47l305.47,1534.2c5.34,26.8,31.54,46.94,58.45,45l1845.07-133.34c20.88-1.5,34-21.78,29.28-45.28L2627,894.36C2622.34,870.86,2601.32,851.28,2580,850.62Z"/><path class="cls-10" d="M2590.18,850.62,707,792.37c-27.47-.85-45.48,20.18-40.14,47L972.3,2373.55c5.33,26.8,31.54,46.94,58.45,45l1845.07-133.34c20.87-1.5,34-21.78,29.28-45.28L2637.18,894.36C2632.5,870.86,2611.48,851.28,2590.18,850.62Z"/><g class="cls-11"><path class="cls-12" d="M2098.71,1663.56c-370.67-201.4-721.93-44.84-974.84-303.17-155.73-159.07-184.32-384.3-179.65-560.68L707,792.37c-27.47-.85-45.48,20.18-40.14,47L972.3,2373.56c5.33,26.79,31.54,46.93,58.45,45l1600.88-115.69C2456.65,1923.05,2259.38,1750.86,2098.71,1663.56Z"/></g><path class="cls-5" d="M2812.8,2234.11,1065,2353.41c-29,2-57.33-19.9-63.1-48.88L729.76,937.76c-5.77-29,13.61-51.88,43.19-51.13l1780.47,44.75c23.25.59,46.17,21.79,51.26,47.37L2844.86,2185C2850,2210.56,2835.63,2232.56,2812.8,2234.11Z"/><path class="cls-13" d="M2820.64,2233.58l-1745.7,119.15c-29,2-57.27-19.89-63-48.85L739.94,938c-5.77-29,13.59-51.84,43.13-51.1l1778.33,44.7c23.23.59,46.13,21.78,51.22,47.35l240,1205.55C2857.74,2210,2843.44,2232,2820.64,2233.58Z"/><path class="cls-5" d="M1669,1379.76l-190.55,1.18c-5.72,0-11.3-4.68-12.46-10.53l-31.53-158.32c-1.16-5.85,2.54-10.57,8.27-10.53l191,1.06c5.59,0,11,4.74,12.19,10.51L1677,1369.25C1678.11,1375,1674.53,1379.73,1669,1379.76Zm-184.43-20,170.17-.82-27-135.4-170.47-.71Z"/><path class="cls-5" d="M1909.77,1378.27l-184.46,1.14c-5.53,0-11-4.6-12.09-10.36l-31-155.74c-1.15-5.76,2.42-10.4,8-10.37l184.9,1c5.4,0,10.7,4.66,11.83,10.34l30.59,153.62C1918.62,1373.61,1915.16,1378.24,1909.77,1378.27Zm-178.6-19.74,164.73-.79-26.53-133.23-165-.69Z"/><path class="cls-5" d="M2143,1376.83l-178.65,1.1c-5.36,0-10.62-4.53-11.74-10.2l-30.52-153.25c-1.13-5.66,2.32-10.23,7.68-10.2l179.07,1c5.24,0,10.38,4.58,11.5,10.17l30.1,151.2C2151.53,1372.24,2148.21,1376.79,2143,1376.83Zm-173-19.45,159.54-.76-26.11-131.13-159.82-.67Z"/><path class="cls-5" d="M2369,1375.43l-173.12,1.07c-5.18,0-10.29-4.46-11.4-10l-30-150.84c-1.11-5.58,2.21-10.07,7.41-10l173.52,1c5.07,0,10.07,4.52,11.17,10l29.64,148.85C2377.22,1370.91,2374,1375.4,2369,1375.43Zm-167.74-19.16,154.59-.74-25.7-129.08-154.87-.66Z"/><path class="cls-5" d="M2588,1374.07l-167.83,1c-5,0-10-4.39-11.09-9.88l-29.56-148.51c-1.1-5.49,2.11-9.92,7.15-9.89l168.22.94c4.92,0,9.78,4.44,10.86,9.86l29.18,146.58C2596,1369.62,2592.91,1374,2588,1374.07Zm-162.68-18.87,149.87-.72-25.31-127.11-150.14-.63Z"/><path class="cls-5" d="M1206,1598.67l-203.14,4.09A13.76,13.76,0,0,1,989.63,1592L957,1428.31c-1.2-6.06,2.78-11,8.89-11l203.61-1.69c6,0,11.73,4.74,12.92,10.71l32.13,161.37C1215.76,1593.62,1211.92,1598.55,1206,1598.67Zm-196.47-18,181.4-3.4-27.87-140-181.72,1.76Z"/><path class="cls-5" d="M1462.43,1593.5l-196.41,4c-5.89.12-11.64-4.61-12.82-10.56l-32-161c-1.19-6,2.65-10.81,8.55-10.86l196.88-1.64c5.75,0,11.36,4.67,12.53,10.54l31.6,158.7C1471.88,1588.54,1468.17,1593.39,1462.43,1593.5Zm-190-17.77,175.41-3.29-27.41-137.64-175.72,1.7Z"/><path class="cls-5" d="M1710.53,1588.51l-190,3.83c-5.7.11-11.27-4.54-12.43-10.39l-31.53-158.32c-1.16-5.85,2.53-10.63,8.24-10.68l190.48-1.58c5.57,0,11,4.6,12.16,10.37l31.08,156.12C1719.65,1583.63,1716.08,1588.4,1710.53,1588.51ZM1526.59,1571l169.71-3.18-27-135.4-170,1.65Z"/><path class="cls-5" d="M1950.67,1583.67l-184,3.71c-5.52.11-10.92-4.47-12.07-10.23l-31-155.74c-1.14-5.76,2.41-10.46,7.94-10.51l184.39-1.53c5.39,0,10.67,4.53,11.8,10.21l30.59,153.61C1959.49,1578.87,1956.05,1583.56,1950.67,1583.67Zm-178.12-17.32,164.27-3.07-26.52-133.23-164.57,1.59Z"/><path class="cls-5" d="M2183.23,1579l-178.15,3.59c-5.34.1-10.59-4.4-11.72-10.07l-30.51-153.25c-1.13-5.66,2.3-10.29,7.65-10.34l178.58-1.48c5.22,0,10.35,4.45,11.46,10l30.11,151.2C2191.76,1574.27,2188.44,1578.88,2183.23,1579Zm-172.57-17.1,159.1-3-26.11-131.12-159.38,1.54Z"/><path class="cls-5" d="M2408.57,1574.45l-172.63,3.48c-5.17.1-10.27-4.33-11.38-9.91l-30-150.84c-1.11-5.58,2.2-10.13,7.39-10.18l173-1.43c5.06,0,10.05,4.38,11.14,9.88l29.64,148.85C2416.82,1569.81,2413.62,1574.35,2408.57,1574.45Zm-167.28-16.88,154.16-2.89-25.7-129.08-154.44,1.49Z"/><path class="cls-5" d="M2627,1570.05l-167.36,3.37c-5,.1-10-4.27-11.06-9.76L2419,1415.16c-1.1-5.49,2.1-10,7.12-10l167.76-1.39c4.91,0,9.76,4.32,10.83,9.74l29.19,146.57C2635,1565.48,2631.92,1570,2627,1570.05Zm-162.24-16.67,149.46-2.8-25.31-127.11-149.73,1.45Z"/><path class="cls-5" d="M1249,1814.45l-202.57,6.92a13.5,13.5,0,0,1-13.19-10.58l-32.6-163.72c-1.2-6,2.76-11.07,8.85-11.2l203-4.52c5.93-.14,11.7,4.59,12.89,10.56l32.13,161.37C1258.7,1809.25,1254.87,1814.25,1249,1814.45ZM1053,1799.11l180.89-5.93-27.86-140-181.23,4.29Z"/><path class="cls-5" d="M1504.69,1805.71l-195.87,6.69c-5.88.2-11.61-4.46-12.79-10.41l-32-161c-1.19-6,2.63-10.88,8.52-11l196.33-4.37c5.74-.13,11.33,4.52,12.5,10.39l31.6,158.7C1514.1,1800.6,1510.41,1805.51,1504.69,1805.71Zm-189.53-15.19,174.92-5.73-27.41-137.64-175.23,4.14Z"/><path class="cls-5" d="M1752.09,1797.26l-189.5,6.47c-5.68.2-11.24-4.39-12.4-10.24l-31.53-158.32c-1.16-5.85,2.52-10.7,8.21-10.82l190-4.23c5.55-.12,11,4.45,12.13,10.23L1760,1786.46C1761.19,1792.24,1757.63,1797.07,1752.09,1797.26Zm-183.43-15,169.23-5.55-27-135.4-169.54,4Z"/><path class="cls-5" d="M1991.57,1789.07l-183.44,6.27c-5.5.19-10.89-4.32-12-10.08l-31-155.74c-1.15-5.76,2.4-10.53,7.91-10.65l183.87-4.09c5.38-.12,10.65,4.38,11.78,10.06l30.59,153.62C2000.36,1784.14,1996.93,1788.89,1991.57,1789.07Zm-177.64-14.89,163.82-5.37-26.53-133.22-164.11,3.88Z"/><path class="cls-5" d="M2223.49,1781.15l-177.67,6.07c-5.32.18-10.56-4.26-11.69-9.93L2003.62,1624c-1.13-5.67,2.29-10.35,7.63-10.47l178.08-4c5.21-.11,10.33,4.32,11.44,9.91l30.1,151.2C2232,1776.3,2228.68,1781,2223.49,1781.15Zm-172.11-14.75,158.66-5.2-26.11-131.12L2025,1633.84Z"/><path class="cls-5" d="M2448.2,1773.47l-172.15,5.88c-5.16.18-10.25-4.2-11.36-9.77l-30-150.84c-1.11-5.58,2.18-10.2,7.35-10.31l172.56-3.84c5-.11,10,4.26,11.12,9.76l29.64,148.85C2456.43,1768.7,2453.24,1773.3,2448.2,1773.47Zm-166.83-14.6,153.73-5-25.7-129.08-154,3.64Z"/><path class="cls-5" d="M2666,1766l-166.9,5.7c-5,.17-9.94-4.14-11-9.63l-29.57-148.51c-1.1-5.49,2.08-10,7.1-10.14l167.29-3.72c4.89-.11,9.73,4.19,10.81,9.61l29.19,146.58C2674,1761.33,2670.92,1765.86,2666,1766Zm-161.8-14.46,149-4.89L2628,1619.57l-149.31,3.54Z"/><path class="cls-5" d="M1291.91,2030.23l-202,9.75a13.26,13.26,0,0,1-13.16-10.43l-32.6-163.72c-1.21-6,2.75-11.14,8.82-11.36l202.48-7.35c5.92-.21,11.67,4.45,12.86,10.42l32.13,161.37C1301.63,2024.87,1297.81,2029.94,1291.91,2030.23Zm-195.4-12.67,180.4-8.45-27.87-140L1068.32,1876Z"/><path class="cls-5" d="M1546.94,2017.92l-195.33,9.42c-5.86.29-11.57-4.31-12.76-10.26l-32-161c-1.18-5.95,2.62-10.94,8.5-11.16l195.78-7.1c5.73-.21,11.31,4.38,12.48,10.24l31.59,158.7C1556.32,2012.66,1552.65,2017.64,1546.94,2017.92Zm-189-12.61,174.43-8.17L1505,1859.5l-174.74,6.59Z"/><path class="cls-5" d="M1793.66,2006l-189,9.12c-5.67.27-11.21-4.25-12.37-10.1l-31.53-158.32c-1.16-5.85,2.5-10.76,8.18-11l189.43-6.87c5.53-.2,10.95,4.31,12.1,10.08l31.08,156.12C1802.72,2000.84,1799.18,2005.74,1793.66,2006Zm-182.94-12.54,168.76-7.91-27-135.4-169.06,6.38Z"/><path class="cls-5" d="M2032.47,1994.48l-182.93,8.83c-5.49.26-10.87-4.19-12-10l-31-155.74c-1.15-5.76,2.38-10.59,7.88-10.78l183.36-6.66c5.36-.2,10.62,4.25,11.75,9.93l30.59,153.62C2041.23,1989.41,2037.81,1994.22,2032.47,1994.48ZM1855.31,1982l163.36-7.66-26.52-133.23-163.66,6.18Z"/><path class="cls-5" d="M2263.74,1983.31l-177.17,8.55c-5.31.26-10.53-4.12-11.66-9.79l-30.52-153.25c-1.12-5.67,2.28-10.42,7.6-10.61l177.59-6.45c5.19-.18,10.3,4.19,11.42,9.78l30.1,151.2C2272.21,1978.33,2268.92,1983.06,2263.74,1983.31Zm-171.64-12.4,158.21-7.41-26.1-131.13-158.5,6Z"/><path class="cls-5" d="M2487.83,1972.49l-171.68,8.29c-5.14.25-10.22-4.07-11.33-9.64l-30-150.85c-1.11-5.57,2.17-10.25,7.33-10.43l172.08-6.25c5-.18,10,4.13,11.09,9.63l29.64,148.85C2496,1967.6,2492.85,1972.25,2487.83,1972.49Zm-166.38-12.33,153.31-7.18-25.71-129.09-153.58,5.8Z"/><path class="cls-5" d="M2705.06,1962l-166.43,8c-5,.24-9.92-4-11-9.5L2498.05,1812c-1.1-5.49,2.07-10.09,7.07-10.27l166.83-6c4.88-.18,9.71,4.07,10.79,9.49l29.18,146.57C2713,1957.19,2709.93,1961.77,2705.06,1962Zm-161.36-12.26,148.63-7L2667,1815.67l-148.9,5.62Z"/><path class="cls-5" d="M1334.88,2246l-201.45,12.58a13,13,0,0,1-13.13-10.28l-32.59-163.71c-1.21-6.06,2.73-11.21,8.79-11.52l201.92-10.18c5.9-.29,11.64,4.3,12.83,10.27l32.13,161.37C1344.57,2240.5,1340.76,2245.64,1334.88,2246ZM1140,2236l179.89-11-27.87-140-180.21,9.34Z"/><path class="cls-5" d="M1589.19,2230.12l-194.78,12.17c-5.84.36-11.55-4.17-12.73-10.12l-32-161c-1.19-5.95,2.61-11,8.46-11.31l195.25-9.84c5.7-.29,11.27,4.24,12.44,10.1l31.6,158.7C1598.55,2224.72,1594.88,2229.77,1589.19,2230.12Zm-188.5-10,174-10.62-27.41-137.64-174.26,9Z"/><path class="cls-5" d="M1835.22,2214.75l-188.45,11.77c-5.65.36-11.18-4.1-12.35-9.95l-31.52-158.32c-1.16-5.85,2.49-10.82,8.16-11.11l188.89-9.52c5.52-.28,10.92,4.17,12.07,9.94l31.09,156.12C1844.26,2209.45,1840.73,2214.41,1835.22,2214.75Zm-182.44-10,168.29-10.27-27-135.4-168.59,8.74Z"/><path class="cls-5" d="M2073.36,2199.88l-182.42,11.39c-5.47.34-10.83-4.05-12-9.8l-31-155.74c-1.15-5.76,2.37-10.65,7.86-10.93l182.85-9.22c5.34-.27,10.59,4.12,11.72,9.8L2081,2189C2082.1,2194.67,2078.7,2199.55,2073.36,2199.88Zm-176.67-10.05,162.91-9.94-26.53-133.23-163.2,8.46Z"/><polygon class="cls-14" points="1112.94 1173.27 905.95 1171.76 897.12 1127.42 1104.22 1129.51 1112.94 1173.27"/><polygon class="cls-15" points="1374.16 1175.17 1174.1 1173.71 1165.42 1130.13 1365.59 1132.14 1374.16 1175.17"/><polygon class="cls-16" points="1626.76 1177.01 1433.28 1175.6 1424.75 1132.74 1618.33 1134.69 1626.76 1177.01"/><polygon class="cls-17" points="1871.16 1178.79 1683.96 1177.43 1675.56 1135.27 1862.88 1137.16 1871.16 1178.79"/><polygon class="cls-18" points="2107.77 1180.52 1926.53 1179.19 1918.27 1137.72 2099.61 1139.55 2107.77 1180.52"/><polygon class="cls-19" points="2336.93 1182.18 2161.38 1180.9 2153.25 1140.09 2328.91 1141.86 2336.93 1182.18"/><polygon class="cls-20" points="2559.01 1183.8 2388.88 1182.56 2380.88 1142.39 2551.11 1144.11 2559.01 1183.8"/><polygon class="cls-5" points="2540.37 1090.16 885.13 1067.16 868.44 983.35 2525.43 1015.13 2540.37 1090.16"/><g class="cls-11"><path class="cls-5" d="M2098.71,1663.56c-370.67-201.4-721.93-44.84-974.84-303.17C994.17,1227.91,952.59,1049.09,945.08,891l-163-4.09c-29-.73-48,21.71-42.31,50.12l272.36,1367.9c5.66,28.41,33.39,49.86,61.84,47.92l1531.7-104.55C2437.39,1906.36,2251.49,1746.57,2098.71,1663.56Z"/></g><path class="cls-21" d="M1909.33,1101c-4.28-9.76-18.86-16.14-27.84-7.8-25.74,23.88-30.9,63.54-44.11,95.34-10.08,24.27-21.3,48-32.17,71.94-23.23-33-43.09-68.6-67.06-101.15-8.32-11.29-28.14-.95-21.86,12.29,24.81,52.34,41.29,106.74,74.31,155.16,11.57,17,36.55,11.73,44.84-5.09,19.15-38.84,38.68-77.54,55.3-117.56C1903.71,1173,1923.9,1134.24,1909.33,1101Z"/><path class="cls-22" d="M1799.43,1397.57l-17-15a14.7,14.7,0,0,1-5-11.56c.24-6.41-.13-15.79-3.74-20.72-5.81-7.93-27.64-1.47-28.62,0-4.29,6.45-5.83,17.58,7.11,21.7s16.26,10.94,16.26,10.94l20.46,28.91Z"/><path class="cls-23" d="M1555.35,1645.18l19.2-8.1s14.4-5.73,14.4-16.68c0-15.69-12.53-38.36-22.79-36.14s-10.82,20.4-2,30.39-11.9,19.47-11.9,19.47Z"/><path class="cls-24" d="M1716.49,2733.68c1.66-5,18.84-7.28,26.06.73,3.58,4,5.4,11.27,2.61,14.06-1,1,2.21,3.5-1.16,3.06C1732.85,2750.09,1714.85,2738.63,1716.49,2733.68Z"/><path class="cls-25" d="M1733.56,2738h17.34c-6.54-10.6-.81-40.59-.81-40.59l-18.65,1.48s.89,8.58,2.66,21.3C1734.71,2724.54,1734.32,2731.17,1733.56,2738Z"/><path class="cls-26" d="M1688.62,2082.25a801.17,801.17,0,0,0-26.89,123.05c-21.06,153.22,23.7,158.1,15.34,327.88-2.67,54.2,47,179.16,51.33,181.92a53.58,53.58,0,0,0,6.86.27,68.54,68.54,0,0,0,17.48-2.91c7.85-1.36,36.19-78.11,29.62-123.75-7.91-55,1.81-93.17-.6-136.29-5.78-103.24-.36-212.3,6.84-212.71,4.55-.26,12.09,42.86,20,88.17,9.1,52,10.57,75.8,29.84,98.48,13,15.31,28.58,23.57,39.4,28.09,131.36,54.91,113.07,55.3,141.72,79,4.74,3.92,17.6,15,26.64,11,6.06-2.68,7.84-11,8.6-14.73,6-29.8-12.46-91.92-61.2-115.22-17.47-8.35-22.34-3.94-39.2-14.35-21-12.93-35.91-34-42.34-53.59-11.33-34.44,6.45-55.94,16.21-101.66,1.88-8.78-1-87.18-9.41-138.95C1907.82,2038.23,1688.62,2082.25,1688.62,2082.25Z"/><path class="cls-27" d="M1732.34,2735.68s21.14-1.82,22.78,2.55,1.82,15.49-11.12,13.3S1730.7,2739,1732.34,2735.68Z"/><path class="cls-28" d="M1559.39,1627.87q2.74,8.67,5.5,17.36c-13.26,10.16-49.75,40.47-45.37,73,6.32,47,93.91,68.31,149.39,68.2,15.21,0,114-.23,160.38-71.11,40.75-62.25,15.51-140-5.31-204.09a430.92,430.92,0,0,0-54.38-110.28l27.57-23.42c33.33,20.19,95.55,64.68,135.72,144.57,37,73.66,39.17,145.22,38.78,172.41-.49,33.68-5.49,42.93-6.32,91.66-.77,45,2.86,73,8.41,125.27,19.47,183.8,14.7,216.72.44,249.44-12,27.56-22.37,51.31-47.55,65.58-50.35,28.54-92.51-19.08-202.26-10.32-38.16,3-51.7,10.3-67.36-.68-9.22-6.46-26.17-24.12-20.66-138.67,4.71-97.87,18.94-123.85-1.47-152-17.91-24.64-36.31-14.92-91.47-42.78-36.08-18.22-114-57.61-121-122.44-5-47,29.73-83.95,35.41-90C1497.69,1627.21,1550.83,1627.65,1559.39,1627.87Z"/><path class="cls-29" d="M1756.64,1723.32c-.65-12.22,7.38-21.6,9.13-23.61,7.36-8.44,9-9.45,11.85-10.56l3.93-1.35s.21,0,.44-.06c2.39-.3,10,1.17,11.45,1.84,4.65,2.14,5.39,23.21-2.4,51,0,1.12-.09,2.24-.14,3.37-.09,1.67-.14,3-.17,4a7.84,7.84,0,0,0,9,8c24.94-3.81,21.49,2.2,20.65,4.13-2,4.52-25.09,17.26-52.89,24.1-34.51,8-56.2,7.08-53.28,1.81,1.1-2,18.22-10.91,38.46-17.6a15.07,15.07,0,0,0,9.65-9.59c2-6.17,5.88-14.73,6.79-17.32C1767.39,1740.11,1757.12,1732.32,1756.64,1723.32Z"/><path class="cls-30" d="M1773.21,1677.53c-1.93,8.73.09,19,1.85,20.93a14.69,14.69,0,0,1,2.39,4.15,4.77,4.77,0,0,1,.26,1.15c.68,5.92-9.51,10.43-8.37,13.26.82,2.06,7.29,1,7.65,2.71s-5.26,3.49-4.9,5.4c.28,1.44,3.58.92,5.05,3.36.73,1.21.27,1.94.6,5.23a28.26,28.26,0,0,0,.94,5.12c1.87,5.8,10,9.58,12.08,7.9.59-.47.3-1,1.2-2.85a15.49,15.49,0,0,1,2.53-3.45c2.42-2.54,7.15-3.68,12.14-5.81,9.25-4,12.51-8.35,13.53-9.86.37-.54.61-1,.78-1.24,3.52-6,5.64-15.4,4-21.86-2.66-10.81-14.61-8.64-21.38-20.28-7.82-13.43,1.73-27.24-3.49-30.18C1794.37,1648,1776.77,1661.4,1773.21,1677.53Z"/><path class="cls-31" d="M1772.93,1715.68c2.8-2.46,5.93,1.14,5.1,5s-5.39,6.92-8.8,5.37S1769.17,1719,1772.93,1715.68Z"/><path class="cls-32" d="M2041.49,2539.86l11,8.77,7.43-8-10.12-9.82a5.48,5.48,0,0,0-7.28-.33l-1.07.87A5.49,5.49,0,0,0,2041.49,2539.86Z"/><path class="cls-33" d="M2062.06,2555.33c.27-8.11,4.28-10.56,2.38-14.5a8.73,8.73,0,0,0-9.05-4.35c-4.78,1-6.79,6.93-7.25,8.27-3.1,9.14,3.73,14.24-.06,21.76a20.39,20.39,0,0,0-2.72,7.1c-.23,1.48-.78,5.13.79,6.11,1.82,1.13,5.56-1.91,9.11-4.79,4.26-3.46,6.39-5.19,7.45-8.12C2064.17,2562.75,2061.86,2561.6,2062.06,2555.33Z"/><path class="cls-34" d="M1834.71,2114.09c-43.59-19.54-91.55,26.21-106,10.81-16.44-17.5,49.78-72.14,43.28-147.12-3.79-43.75-32.54-96.75-75.73-112.51-45-16.44-80.33,16.85-116.84-8.66-19.56-13.67-12.29-25.24-34.62-47.6-38.22-38.27-79.25-24.11-101.69-49.76-8.06-9.22-14.21-24.16-11.94-49.9-6.32,14.26-10.69,31.45-8.69,50.26,6.92,64.83,84.89,104.22,121,122.44,55.16,27.86,73.56,18.14,91.47,42.78,20.41,28.1,6.18,54.09,1.47,152-5.51,114.55,11.44,132.21,20.66,138.67,15.66,11,29.2,3.73,67.36.68,109.75-8.76,151.91,38.86,202.26,10.32a77.48,77.48,0,0,0,21.63-18.2c-28.08-.22-45.72-8.2-57.31-18.44C1864.18,2166.16,1867.86,2128.94,1834.71,2114.09Z"/><path class="cls-35" d="M2540.07,2569.54c5.81,9.27,4.9,13.6,3.91,15.57-2.93,5.78-11.88,1.55-33.56,6.44a36.86,36.86,0,0,1-13.67.95c-5.38-.69-11.87-2.84-11.75-4.27,0-.52.95-.82,1.3-.94,6-1.93,42.87-17.62,42.87-17.62Z"/><path class="cls-36" d="M2540.76,2547.78l-1.13,22.18s-8.68,7.6-12-.18c-2.38-5.6-4-21.21-4-21.21Z"/><polygon class="cls-37" points="2431.19 2570.15 2443.02 2594.32 2456.17 2590.79 2450.64 2567.85 2431.19 2570.15"/><path class="cls-38" d="M2448.63,2607.72c5.68-8.35,11.53-8.26,12.14-13.66.48-4.25-2.59-9.07-6.62-10.6-5.67-2.15-11.75,2.77-13.13,3.88-9.33,7.56-5.54,17.45-14.52,22.85-1.8,1.09-4.72,2.35-7.58,5.65-1.21,1.41-4.23,4.88-3.22,7,1.17,2.39,7.11,1.68,12.76,1,6.78-.81,10.17-1.21,13.22-3.59C2445.91,2616.92,2444.26,2614.17,2448.63,2607.72Z"/><path class="cls-39" d="M2557.75,2018.25a724.67,724.67,0,0,1-4.48,131.31c-4.92,38.94-9.09,45.94-9.42,72.61-.72,58,18.51,64.73,27.32,129.52,9.71,71.54-4.66,130.24-10.36,152.65a412,412,0,0,1-14.88,46.65c-6.11,6.29-16.36,4.92-27.16,3.64-9.32-64.85-19.28-125.79-28.6-190.64q-31.11-145.5-62.23-291Z"/><path class="cls-40" d="M2518.77,2554.63c-9.32-64.85-19.28-125.79-28.6-190.64q-31.11-145.5-62.23-291l129.81-54.74c.19,3.38.29,6.65.43,10-57.91,59.36-66.57,103.3-63.53,132.53,3.68,35.45,24.56,51.45,25,103.25.34,37.05-10.19,44.45-7.44,77.67,3.56,42.78,23.91,65.31,34.9,89.29,10.63,23.18,16.51,56.77,3.8,106.28-1.78,5.16-3.48,9.77-5,13.75C2539.82,2557.28,2529.57,2555.91,2518.77,2554.63Z"/><path class="cls-41" d="M2483.07,2073.82c-28.13,57.92-42.68,102.89-50.32,130.54-4.66,16.87-8.69,34.37-8.11,56.84a175.44,175.44,0,0,0,13.94,63.61,337.66,337.66,0,0,1,22.32,62.93c19.18,77.86,6.18,145.42-5.13,184.59l-23,10.75a1312.08,1312.08,0,0,1-72.88-204.15c-12.57-47.15-22.25-84.13-26.27-131.8-4.23-50.28-3.67-130.41,29.59-228.86Z"/><path class="cls-42" d="M2428.72,1640.06c-49.55,12.8-87.08,25-102,52.7-15.74,29.3,14.68,47.86,27.54,108.22,19.69,92.42-31.12,131.77-7.87,224.54a244,244,0,0,0,29.26,68.83,256.78,256.78,0,0,0,80.7,37.19c52.45,13.6,76.74,1.15,145.64-.61,112.7-2.89,132.2,28.25,181.22,4,49.54-24.46,82.08-82.17,69.28-104.61-7.66-13.44-27.46-3-58.32-17.74-39.76-19-35.9-49.7-68.82-73-47.29-33.54-86.7,7.56-127.19-21.66-41-29.55-52.12-108.76-39.79-157.48,8.05-31.83,5.46-65.49,10.71-97.9a20.61,20.61,0,0,0-1.43-11.58c-7.79-17.72-41.47-18.46-66.91-18.78C2462,1631.68,2432.79,1639,2428.72,1640.06Z"/><path class="cls-43" d="M2774.4,2100c-16.38-9.06-10.41-39.1-34.7-52.77-22.54-12.68-37.63,7.6-69.89.57-41.38-9-42.49-48.06-82.19-57.25-28.55-6.62-35.47,11.83-75.52,15.92s-93.84-8.09-130.6-47.78a143.41,143.41,0,0,1-30.88-52.89c-7.84,35.48-16.69,69.89-4.21,119.68a244,244,0,0,0,29.26,68.83,256.78,256.78,0,0,0,80.7,37.19c52.45,13.6,76.74,1.15,145.64-.61,112.7-2.89,132.2,28.25,181.22,4,31.66-15.63,56.31-44.82,66.68-69.73C2808.25,2101.16,2786.3,2106.62,2774.4,2100Z"/><path class="cls-44" d="M2392.47,1555.47s-11.69,27.15-11.06,45.47,21.13,15.29,21.13,15.29l.18,11.57a25,25,0,0,1-14.48,23.09l-7.89,3.67s54,7,81.25-15.91l-8.42-.12a25,25,0,0,1-24.23-20.44l-.91-4.89S2432.52,1555.56,2392.47,1555.47Z"/><path class="cls-45" d="M2338.39,1851.86l-80.71-139.21a4.52,4.52,0,0,0-4.93-2.13l-112.91,26.39a4.51,4.51,0,0,0-2.81,6.79l93.65,149.74a4.52,4.52,0,0,0,5.37,1.86l99.24-35.84Z"/><path class="cls-46" d="M2318.53,1836.06l-65.34-112.71a3.65,3.65,0,0,0-4-1.73L2157.77,1743a3.66,3.66,0,0,0-2.27,5.5l75.83,121.25a3.66,3.66,0,0,0,4.34,1.5l80.35-29Z"/><path class="cls-47" d="M2233.9,1724.64l-5.19-9a3.29,3.29,0,0,0-3.59-1.58l-47,10.58a3.3,3.3,0,0,0-2.13,4.89l5.77,9.83a3.31,3.31,0,0,0,3.64,1.54l46.44-11.37A3.29,3.29,0,0,0,2233.9,1724.64Z"/><path class="cls-48" d="M2172.31,1763.4l.21,0,82.79-19.54a1.9,1.9,0,1,0-.87-3.7l-82.79,19.53a1.91,1.91,0,0,0,.66,3.75Z"/><path class="cls-49" d="M2177.5,1771.43l.23,0,82.29-20.31a1.91,1.91,0,0,0-.91-3.7l-82.29,20.31a1.91,1.91,0,0,0,.68,3.75Z"/><path class="cls-50" d="M2220.9,1780.36l.29-.06,44.73-12.34a1.91,1.91,0,1,0-1-3.68l-44.74,12.34a1.91,1.91,0,0,0,.73,3.74Z"/><path class="cls-51" d="M2207.76,1856.8s-20-10.74-23.08-19.45-4.32-25.59-4.32-25.59l13.35,22.56s5.09-2,6.54-10.1,6-1.29,5.09,4.77S2207.76,1856.8,2207.76,1856.8Z"/><path class="cls-52" d="M2334.73,1683a139.64,139.64,0,0,0-34.31,37.48c-32.29,52.24-12.35,102.22-41.34,123.66-8.29,6.14-23.35,12-52.38,5l-10.14,6.83s-6.13,68,75.07,62.06,111-110.81,111-110.81Z"/><path class="cls-53" d="M2402.9,1580.64c2.72-.45,4.7-4.12,6.66-3.24s2.26,6,.85,9.7a12.88,12.88,0,0,1-4.53,5.75,33.75,33.75,0,0,1,7,13c3.58,13-2.55,24.16-4.95,30.6-10.82,29.06,13.28,71.58,37.56,92,19.73,16.64,27.63,8.64,39.74,22.56,23.58,27.1-3,61.24,11.14,99.16,21.56,57.67,116.25,67.51,120.17,67.87,1.55.14,2.58.22,4.19.34,42.38,3.18,106.61,8,148.41-30,31.27-28.46,42.89-74.43,37.09-113.6-1.52-10.3-7.92-49.36-42.61-78.79-5.51-4.67-38.11-32.26-78.83-29.26-21.57,1.6-25.28,9.55-42.15,6.22-23.1-4.56-38.7-23.92-48.38-35.93-17.8-22.09-11.77-27.62-24.13-38.19-24.23-20.7-49-.81-74.52-18.74-25.17-17.67-13.17-45.46-37.3-60.56-24.89-15.58-69.23-5.74-77.05,15.91C2374.58,1554,2394.56,1582,2402.9,1580.64Z"/><path class="cls-54" d="M1494,653l46.87,33.09s1.1-102.87,115.74-134.71,193-74.42,172.78-163.36L1709.51,344S1689.93,461.2,1609.38,481.8C1473.65,516.51,1494,653,1494,653Z"/><path class="cls-55" d="M1664.7,732c-2.77-51.9,2-116.84,43-145.13,40.18-27.74,84.78.75,149.65-13.39,42.46-9.25,98.67-37.88,155.36-125q48.79,98.4,97.57,196.82c-100.39,74-165.16,77.63-207.16,64.15-50.1-16.07-75-58.88-116-51.85-38,6.53-62.41,51.37-77.38,89.75Z"/><path class="cls-56" d="M2086,753.51l9.31,33.49s39.94-47.85,105.93-18.86,119.08,39,143.68-10.44l-39.34-66.61s-54.11,47.51-99.81,26.3C2128.83,681.67,2086,753.51,2086,753.51Z"/><path class="cls-57" d="M1927.05,449.66c-13-28.68-24.6-66.37-7.69-91.36,16.57-24.5,48-18.23,81.52-40.49,21.93-14.56,47.36-43.09,60.18-104.75l98.39,89.62c-40.39,63.84-76.14,80.17-102.82,81.8-31.81,1.95-55.31-16.72-76.85-3.75-20,12-23.93,42.73-23.93,67.69Z"/><path class="cls-58" d="M2126.63,577.31c-26-35.28,16.52-119.5,67.84-171.15,94.63-95.22,190.83-51.22,277.25-133.46,33.14-31.53,70.15-86.68,80.41-189.69L2734.6,293.82c-23.24,143.13-72.68,192.61-114.06,211.1-89.5,40-177.67-48.76-304-12.05-68.64,19.94-115.48,67.31-143.83,103.13C2156,595.2,2136.87,591.19,2126.63,577.31Z"/><path class="cls-59" d="M1888.07,232.08c25.28-17.74,66.13-21.67,77.84-4,10.65,16.1-5.44,46.09-22.76,62.1-26.22,24.22-72.38,32.22-85.58,14.78C1845.26,288.72,1861.84,250.48,1888.07,232.08Z"/><path class="cls-60" d="M2424.3,578.66c27.9,13.26,51.45,46.86,41.82,65.78-8.76,17.19-42.79,18-65.25,10.8-34-10.87-63.72-47.1-55-67.17C2353.92,569.33,2395.37,564.91,2424.3,578.66Z"/><path class="cls-61" d="M1550.52,719.9c20.48-14.37,53.55-17.55,63-3.21,8.62,13-4.41,37.32-18.43,50.28-21.23,19.61-58.61,26.09-69.29,12C1515.86,765.76,1529.29,734.8,1550.52,719.9Z"/><path class="cls-62" d="M1333.17,646.37c-.22-37,22.89-80.34,47.39-80.18,22.27.15,40.16,36.21,44,64.14,5.75,42.29-17,93.62-42.22,95.11C1358.77,726.84,1333.39,684.78,1333.17,646.37Z"/><path class="cls-63" d="M1529,346.8c25.29-17.74,66.14-21.67,77.84-4,10.65,16.1-5.44,46.09-22.76,62.1-26.21,24.22-72.38,32.22-85.57,14.78C1486.17,403.44,1502.76,365.2,1529,346.8Z"/></g></g></g></svg>